# Writing 99 Vertices
v -5.694948 7.861178 -1.802176
v -5.694948 7.861178 -1.802176
v -5.694948 7.861178 -1.802176
v -5.694948 7.861178 -1.802176
v 2.644777 2.056342 -3.807206
v 2.644777 2.056342 -3.807206
v 2.644777 2.056342 -3.807206
v 2.644777 2.056342 -3.807206
v -2.507816 2.373295 3.706324
v -2.507816 2.373295 3.706324
v -2.507816 2.373295 3.706324
v -0.7599816 8.626704 -3.943901
v -0.7599816 8.626704 -3.943901
v -0.7599816 8.626704 -3.943901
v -3.233959 10.73857 0.5367249
v -3.233959 10.73857 0.5367249
v -3.233959 10.73857 0.5367249
v -3.233959 10.73857 0.5367249
v 5.425197 4.932504 1.871312
v 5.425197 4.932504 1.871312
v 1.786903 -0.4374571 -1.78161
v 1.786903 -0.4374571 -1.78161
v -6.152743 3.138822 0.1622349
v -6.152743 3.138822 0.1622349
v -6.152743 3.138822 0.1622349
v -6.152743 3.138822 0.1622349
v 4.644203 10.04184 -1.670858
v 4.644203 10.04184 -1.670858
v 4.644203 10.04184 -1.670858
v -3.807515 0.7358007 -0.2464056
v -3.807515 0.7358007 -0.2464056
v -3.807515 0.7358007 -0.2464056
v -3.807515 0.7358007 -0.2464056
v 3.929403 0.9581618 1.617396
v 3.929403 0.9581618 1.617396
v 3.929403 0.9581618 1.617396
v 3.929403 0.9581618 1.617396
v 6.192669 6.067496 -1.688272
v 6.192669 6.067496 -1.688272
v -6.192669 7.892113 0.3032357
v -6.192669 7.892113 0.3032357
v -6.192669 7.892113 0.3032357
v -6.192669 7.892113 0.3032357
v 4.310468 8.847814 1.931888
v 4.310468 8.847814 1.931888
v 4.310468 8.847814 1.931888
v 4.310468 8.847814 1.931888
v -0.8771271 2.204102 -4.038825
v -0.8771271 2.204102 -4.038825
v -0.8771271 2.204102 -4.038825
v 0.2313554 11.43746 -0.7201761
v 0.2313554 11.43746 -0.7201761
v 0.2313554 11.43746 -0.7201761
v 0.9315714 8.943658 3.882977
v 0.9315714 8.943658 3.882977
v 0.9315714 8.943658 3.882977
v 1.217635 2.124649 3.866443
v 1.217635 2.124649 3.866443
v 1.217635 2.124649 3.866443
v -2.715789 8.795898 3.927621
v -2.715789 8.795898 3.927621
v -2.715789 8.795898 3.927621
v -2.715789 8.795898 3.927621
v -3.137604 5.398636 -4.184867
v -3.575714 10.2642 -1.046699
v -3.575714 10.2642 -1.046699
v 0.0113219 -0.4374571 0.01950562
v 0.0113219 -0.4374571 0.01950562
v 0.7332996 5.399065 -4.46854
v -5.679753 3.107887 -1.945105
v -5.679753 3.107887 -1.945105
v -5.679753 3.107887 -1.945105
v -5.679753 3.107887 -1.945105
v 2.473247 5.76685 3.890586
v 5.13424 2.152186 -1.917681
v 5.13424 2.152186 -1.917681
v 5.13424 2.152186 -1.917681
v 1.114647 11.43746 1.287499
v 1.114647 11.43746 1.287499
v 1.114647 11.43746 1.287499
v 1.114647 11.43746 1.287499
v -2.719654 0.2614312 -1.718768
v -2.719654 0.2614312 -1.718768
v -5.054186 5.601364 3.949672
v -5.054186 5.601364 3.949672
v -5.054186 5.601364 3.949672
v -5.054186 5.601364 3.949672
v -5.054186 5.601364 3.949672
v 2.916011 8.875351 -3.784173
v 2.916011 8.875351 -3.784173
v 2.916011 8.875351 -3.784173
v 2.916011 8.875351 -3.784173
v -0.8522943 5.600935 5.34704
v -0.8522943 5.600935 5.34704
v -0.8522943 5.600935 5.34704
v -0.8522943 5.600935 5.34704
v -0.8522943 5.600935 5.34704
v -0.8522943 5.600935 5.34704
v 4.143551 5.23315 -3.719199
# Writing 99 Texture Coordinates
vt 0.8404139 -0.09333438
vt 0.8404139 -0.09333438
vt 0.8404139 -0.09333438
vt 0.8404139 -0.09333438
vt 0.8706354 -0.1665285
vt 0.8706354 -0.1665285
vt 0.8706354 -0.1665285
vt 0.8706354 -0.1665285
vt 0.8847575 -0.1656172
vt 0.8847575 -0.1656172
vt 0.8847575 -0.1656172
vt 0.8737229 -0.1169404
vt 0.8737229 -0.1169404
vt 0.8737229 -0.1169404
vt 0.8762034 -0.06478232
vt 0.9265932 -0.08137786
vt 0.9265932 -0.08137786
vt 0.8762034 -0.06478232
vt 0.9543853 -0.1977388
vt 0.8048716 -0.1216847
vt 0.8568514 -0.1907135
vt 0.8568514 -0.1907135
vt 0.7970698 -0.1203979
vt 0.7970698 -0.1203979
vt 0.9376485 -0.1807763
vt 0.9376485 -0.1807763
vt 0.919883 -0.1301419
vt 0.919883 -0.1301419
vt 0.919883 -0.1301419
vt 0.8025542 -0.1624017
vt 0.9059079 -0.2136927
vt 0.9059079 -0.2136927
vt 0.8025542 -0.1624017
vt 0.8924327 -0.2272177
vt 0.8118979 -0.1734025
vt 0.8118979 -0.1734025
vt 0.8924327 -0.2272177
vt 0.9177127 -0.1634158
vt 0.9177127 -0.1634158
vt 0.9497156 -0.1242255
vt 0.827545 -0.07687694
vt 0.827545 -0.07687694
vt 0.9497156 -0.1242255
vt 0.8319185 -0.0788241
vt 0.9589302 -0.1330979
vt 0.9589302 -0.1330979
vt 0.8319185 -0.0788241
vt 0.8500527 -0.1520711
vt 0.8500527 -0.1520711
vt 0.8500527 -0.1520711
vt 0.9053048 -0.09350318
vt 0.9053048 -0.09350318
vt 0.9053048 -0.09350318
vt 0.8693848 -0.09690416
vt 0.8693848 -0.09690416
vt 0.8693848 -0.09690416
vt 0.8498585 -0.1596236
vt 0.8498585 -0.1596236
vt 0.8498585 -0.1596236
vt 0.900089 -0.1098011
vt 0.900089 -0.1098011
vt 0.900089 -0.1098011
vt 0.900089 -0.1098011
vt 0.8496177 -0.1268102
vt 0.8682926 -0.08138555
vt 0.8682926 -0.08138555
vt 0.8525889 -0.2138
vt 0.8343869 -0.2031553
vt 0.8632558 -0.1356909
vt 0.8162438 -0.1288505
vt 0.8162438 -0.1288505
vt 0.8162438 -0.1288505
vt 0.8162438 -0.1288505
vt 0.8451688 -0.1212
vt 0.8932096 -0.184718
vt 0.8932096 -0.184718
vt 0.8932096 -0.184718
vt 0.9285467 -0.08592254
vt 0.8791936 -0.06076556
vt 0.9285467 -0.08592254
vt 0.8791936 -0.06076556
vt 0.8223414 -0.166275
vt 0.8223414 -0.166275
vt 0.9103029 -0.141358
vt 0.9103029 -0.141358
vt 0.9103029 -0.141358
vt 0.9103029 -0.141358
vt 0.9103029 -0.141358
vt 0.8951517 -0.1303064
vt 0.8951517 -0.1303064
vt 0.8951517 -0.1303064
vt 0.8951517 -0.1303064
vt 0.8751132 -0.1296383
vt 0.8751132 -0.1296383
vt 0.8751132 -0.1296383
vt 0.8751132 -0.1296383
vt 0.8751132 -0.1296383
vt 0.8751132 -0.1296383
vt 0.8907542 -0.1547351
# Writing 99 Normals
vn -0.6889511 0.7216579 -0.06749924
vn -0.860994 0.009838357 -0.50852
vn -0.7726483 0.1617187 -0.6138906
vn -0.6065649 0.2320767 -0.7604074
vn 0.3817309 -0.5939083 -0.7082052
vn 0.2505362 -0.7306033 -0.6351775
vn 0.35568 -0.3032311 -0.8840491
vn 0.2963561 -0.1695403 -0.9399092
vn -0.1556227 -0.5391535 0.8277047
vn -0.3032508 -0.5702972 0.7634135
vn -0.3810558 -0.6093438 0.6953392
vn -0.1807109 0.489116 -0.8532931
vn -0.1545881 0.3999052 -0.9034259
vn -0.1930869 0.256053 -0.9471823
vn -0.3213277 0.9289933 0.1836297
vn -0.7233745 0.6460522 0.2436101
vn -0.1026942 0.9497331 0.2957381
vn -0.5617344 0.8038638 0.1955952
vn 0.9671802 -0.05140407 0.2488375
vn 0.5165206 0.02847542 0.8558012
vn 0.2505362 -0.7306033 -0.6351775
vn -0.0306031 -0.9853746 0.1676318
vn -0.9994992 -0.009292879 0.03025221
vn -0.736577 -0.6566028 0.1622562
vn -0.9576678 -0.2160646 0.1902325
vn -0.8600606 -0.4613838 0.2177635
vn 0.1368565 0.8156475 -0.5621293
vn 0.6457953 0.2045313 -0.7356054
vn 0.7818902 0.540974 0.3098302
vn -0.4893631 -0.8306901 0.2654765
vn -0.4893631 -0.8306901 0.2654765
vn -0.3775937 -0.8357936 0.3985876
vn -0.6051783 -0.7835789 0.1405823
vn 0.1629842 -0.9056774 0.391388
vn 0.1629842 -0.9056774 0.391388
vn 0.5188705 -0.1844084 0.8347257
vn 0.9145314 -0.3564178 0.1913082
vn 0.9671802 -0.05140407 0.2488375
vn 0.635644 -0.02717805 -0.7715037
vn -0.9599768 0.1783468 0.2159564
vn -0.7233745 0.6460522 0.2436101
vn -0.9994992 -0.009292879 0.03025221
vn -0.8534083 0.4428166 0.2749686
vn 0.4545765 0.4565392 0.7648087
vn 0.6696007 0.5971719 0.4416114
vn 0.7818902 0.540974 0.3098302
vn 0.5092618 0.5837511 0.6323662
vn -0.1523706 -0.2061882 -0.9665763
vn -0.1160743 -0.3665964 -0.923111
vn -0.2214525 -0.587407 -0.7784035
vn 0.5611138 0.7687929 0.3067718
vn -0.1708692 0.9824218 0.07517517
vn 0.05728019 0.7900085 -0.6104143
vn 0.2665356 0.5058273 0.8204252
vn 0.3297697 0.386039 0.8615253
vn 0.1267622 0.6747525 0.7270766
vn 0.188927 -0.5318328 0.8255062
vn -0.02233844 -0.7200357 0.6935774
vn 0.297121 -0.262062 0.9181735
vn -0.3541889 0.4051331 0.8428627
vn -0.5195383 0.385565 0.7625087
vn -0.01792841 0.6674694 0.7444214
vn -0.1218583 0.535901 0.8354405
vn -0.3780179 0.0304129 -0.9252988
vn -0.2800611 0.6228522 -0.7304937
vn -0.450468 0.8927835 0.004021489
vn -0.0147032 -0.9278767 0.3725971
vn -0.0147032 -0.9278767 0.3725971
vn 0.0627981 0.004446075 -0.9980164
vn -0.860994 0.009838357 -0.50852
vn -0.5641686 -0.1649283 -0.8090196
vn -0.7201489 -0.6770327 -0.1516979
vn -0.7486245 -0.1166056 -0.6526597
vn 0.459052 0.02557573 0.8880412
vn 0.2392861 -0.9418579 0.2358937
vn 0.9145314 -0.3564178 0.1913082
vn 0.5469201 -0.4636782 -0.6970516
vn -0.1026942 0.9497331 0.2957381
vn 0.2050225 0.8859528 0.415997
vn 0.3236357 0.7974163 0.5093009
vn 0.3236357 0.7974163 0.5093009
vn -0.2214525 -0.587407 -0.7784035
vn -0.530028 -0.8472915 -0.03416719
vn -0.718098 -0.3308487 0.6122698
vn -0.8754521 -0.03175111 0.482261
vn -0.4742868 0.1578216 0.8661088
vn -0.4763773 -0.2386983 0.8462197
vn -0.7187781 0.2650308 0.6427416
vn 0.311174 0.1513133 -0.9382297
vn 0.05728019 0.7900085 -0.6104143
vn 0.05155654 0.6211478 -0.7819957
vn 0.2380331 0.3257085 -0.9150159
vn 0.1939745 0.006358685 0.9809861
vn 0.1275578 0.1816852 0.9750485
vn -0.2165973 0.1164488 0.9692912
vn 0.2733593 0.1562561 0.9491359
vn 0.01239987 -0.3071049 0.9515949
vn -0.2362516 -0.1746062 0.9558755
vn 0.4343204 -0.01815468 -0.9005755
# Writing 2 Groups
g healing_crystal
usemtl healing_crystal
f 4/4/4 65/65/65 13/13/13 
f 64/64/64 4/4/4 13/13/13 
f 65/65/65 53/53/53 91/91/91 
f 12/12/12 65/65/65 91/91/91 
f 73/73/73 3/3/3 64/64/64 
f 53/53/53 27/27/27 90/90/90 
f 82/82/82 71/71/71 64/64/64 
f 49/49/49 82/82/82 64/64/64 
f 28/28/28 39/39/39 99/99/99 
f 89/89/89 28/28/28 99/99/99 
f 21/21/21 82/82/82 50/50/50 
f 6/6/6 21/21/21 50/50/50 
f 39/39/39 77/77/77 7/7/7 
f 99/99/99 39/39/39 7/7/7 
f 77/77/77 21/21/21 5/5/5 
f 64/64/64 14/14/14 69/69/69 
f 13/13/13 92/92/92 69/69/69 
f 48/48/48 64/64/64 69/69/69 
f 89/89/89 99/99/99 69/69/69 
f 8/8/8 48/48/48 69/69/69 
f 99/99/99 8/8/8 69/69/69 
f 26/26/26 31/31/31 11/11/11 
f 84/84/84 26/26/26 11/11/11 
f 32/32/32 67/67/67 58/58/58 
f 10/10/10 32/32/32 58/58/58 
f 40/40/40 25/25/25 85/85/85 
f 67/67/67 35/35/35 58/58/58 
f 16/16/16 43/43/43 88/88/88 
f 61/61/61 16/16/16 88/88/88 
f 36/36/36 20/20/20 74/74/74 
f 59/59/59 36/36/36 74/74/74 
f 79/79/79 17/17/17 62/62/62 
f 56/56/56 79/79/79 62/62/62 
f 20/20/20 44/44/44 55/55/55 
f 74/74/74 20/20/20 55/55/55 
f 47/47/47 81/81/81 54/54/54 
f 87/87/87 10/10/10 98/98/98 
f 9/9/9 57/57/57 97/97/97 
f 60/60/60 86/86/86 95/95/95 
f 59/59/59 74/74/74 93/93/93 
f 54/54/54 63/63/63 94/94/94 
f 74/74/74 55/55/55 96/96/96 
f 1/1/1 41/41/41 18/18/18 
f 66/66/66 1/1/1 18/18/18 
f 70/70/70 23/23/23 42/42/42 
f 2/2/2 70/70/70 42/42/42 
f 83/83/83 33/33/33 24/24/24 
f 72/72/72 83/83/83 24/24/24 
f 22/22/22 68/68/68 30/30/30 
f 83/83/83 22/22/22 30/30/30 
f 75/75/75 34/34/34 68/68/68 
f 22/22/22 75/75/75 68/68/68 
f 38/38/38 19/19/19 37/37/37 
f 76/76/76 38/38/38 37/37/37 
f 29/29/29 46/46/46 19/19/19 
f 38/38/38 29/29/29 19/19/19 
f 51/51/51 80/80/80 45/45/45 
f 29/29/29 51/51/51 45/45/45 
f 66/66/66 15/15/15 78/78/78 
f 52/52/52 66/66/66 78/78/78 
g
